<svg xmlns="http://www.w3.org/2000/svg" width="52" height="52" viewBox="0 0 52 52" shape-rendering="crispEdges"><path fill="#463d33" d="M16 0h8v1h-8zM14 1h12v1h-12zM13 2h4v1h-4zM23 2h4v1h-4zM12 3h3v1h-3zM25 3h3v1h-3zM12 4h2v1h-2zM26 4h2v1h-2zM12 5h2v1h-2zM26 5h2v1h-2zM12 6h2v1h-2zM26 6h2v1h-2zM7 7h7v1h-7zM26 7h7v1h-7zM6 8h2v1h-2zM32 8h2v1h-2zM6 9h2v1h-2zM32 9h2v1h-2zM6 10h4v1h-4zM30 10h4v1h-4zM7 11h4v1h-4zM29 11h4v1h-4zM9 12h2v1h-2zM29 12h2v1h-2zM8 13h2v1h-2zM29 13h2v1h-2zM7 14h2v1h-2zM29 14h2v1h-2zM7 15h2v1h-2zM29 15h2v1h-2zM8 16h2v1h-2zM29 16h2v1h-2zM8 17h2v1h-2zM29 17h2v1h-2zM9 18h2v1h-2zM29 18h2v1h-2zM10 19h2v1h-2zM29 19h2v1h-2zM9 20h2v1h-2zM30 20h2v1h-2zM10 21h3v1h-3zM29 21h2v1h-2zM11 22h3v1h-3zM28 22h3v1h-3zM13 23h2v1h-2zM29 23h2v1h-2zM10 24h5v1h-5zM27 24h3v1h-3zM9 25h3v1h-3zM13 25h2v1h-2zM20 25h10v1h-10zM8 26h2v1h-2zM20 26h9v1h-9zM8 27h2v1h-2zM20 27h2v1h-2zM8 28h4v1h-4zM20 28h7v1h-7zM10 29h2v1h-2zM21 29h6v1h-6zM10 30h2v1h-2zM25 30h2v1h-2zM10 31h2v1h-2zM25 31h2v1h-2zM10 32h2v1h-2zM25 32h2v1h-2zM10 33h2v1h-2zM25 33h2v1h-2zM10 34h2v1h-2zM25 34h2v1h-2zM10 35h2v1h-2zM25 35h2v1h-2zM10 36h2v1h-2zM25 36h2v1h-2zM10 37h2v1h-2zM25 37h2v1h-2zM10 38h2v1h-2zM25 38h2v1h-2zM10 39h2v1h-2zM25 39h2v1h-2zM10 40h2v1h-2zM25 40h3v1h-3zM10 41h2v1h-2zM25 41h4v1h-4zM45 41h3v1h-3zM10 42h2v1h-2zM27 42h9v1h-9zM44 42h5v1h-5zM10 43h2v1h-2zM28 43h9v1h-9zM44 43h1v1h-1zM47 43h2v1h-2zM10 44h2v1h-2zM35 44h3v1h-3zM43 44h2v1h-2zM47 44h2v1h-2zM10 45h2v1h-2zM36 45h3v1h-3zM43 45h2v1h-2zM47 45h2v1h-2zM10 46h2v1h-2zM37 46h3v1h-3zM42 46h2v1h-2zM47 46h2v1h-2zM10 47h2v1h-2zM38 47h6v1h-6zM47 47h2v1h-2zM10 48h2v1h-2zM39 48h4v1h-4zM47 48h2v1h-2zM10 49h2v1h-2zM47 49h2v1h-2zM10 50h42v1h-42zM11 51h40v1h-40z"/><path fill="#d9b25a" d="M17 2h6v1h-6zM15 3h10v1h-10zM14 4h12v1h-12zM14 7h12v1h-12zM8 8h2v1h-2zM11 8h7v1h-7zM19 8h6v1h-6zM26 8h6v1h-6zM8 9h24v1h-24z"/><path fill="#6e3b2e" d="M14 5h12v1h-12zM14 6h12v1h-12z"/><path fill="#b8903f" d="M10 8h1v1h-1zM18 8h1v1h-1zM25 8h1v1h-1zM10 10h20v1h-20zM11 11h18v1h-18z"/><path fill="#563f33" d="M11 12h17v1h-17zM10 13h3v1h-3zM15 13h5v1h-5zM22 13h7v1h-7zM9 14h7v1h-7zM18 14h6v1h-6zM26 14h3v1h-3zM9 15h2v1h-2zM13 15h14v1h-14zM10 16h9v1h-9zM21 16h4v1h-4zM26 16h2v1h-2zM10 17h12v1h-12zM23 17h2v1h-2zM11 18h7v1h-7zM12 19h6v1h-6zM11 20h7v1h-7zM13 21h5v1h-5z"/><path fill="#1e1711" d="M28 12h1v1h-1zM27 17h1v1h-1zM18 18h3v1h-3zM27 18h1v1h-1zM18 19h1v1h-1zM18 20h1v1h-1zM18 21h3v1h-3zM20 24h2v1h-2zM13 26h2v1h-2zM13 27h2v1h-2zM12 28h3v1h-3zM17 28h3v1h-3zM12 29h2v1h-2zM13 30h1v1h-1zM19 30h1v1h-1zM13 31h1v1h-1zM19 31h1v1h-1zM13 32h1v1h-1zM19 32h1v1h-1zM13 33h1v1h-1zM20 33h1v1h-1zM14 34h1v1h-1zM21 34h1v1h-1zM15 35h1v1h-1zM22 35h1v1h-1zM16 36h1v1h-1zM23 36h1v1h-1zM17 37h1v1h-1zM24 37h1v1h-1zM18 38h1v1h-1zM19 39h1v1h-1zM20 40h1v1h-1zM21 41h4v1h-4zM22 42h1v1h-1zM22 43h1v1h-1zM22 44h1v1h-1zM42 49h1v1h-1z"/><path fill="#7c614c" d="M13 13h2v1h-2zM20 13h2v1h-2zM16 14h2v1h-2zM24 14h2v1h-2zM11 15h2v1h-2zM19 16h2v1h-2z"/><path fill="#e8b98f" d="M27 15h2v1h-2zM25 16h1v1h-1zM28 16h1v1h-1zM22 17h1v1h-1zM25 17h1v1h-1zM28 17h1v1h-1zM21 18h6v1h-6zM28 18h1v1h-1zM20 19h9v1h-9zM21 20h9v1h-9zM21 21h8v1h-8zM16 22h11v1h-11zM16 23h13v1h-13zM17 24h3v1h-3zM22 24h5v1h-5zM17 25h3v1h-3zM17 26h3v1h-3zM17 27h3v1h-3zM23 42h4v1h-4zM23 43h5v1h-5zM23 44h6v1h-6z"/><path fill="#efe3cf" d="M26 17h1v1h-1z"/><path fill="#cf9a6c" d="M19 19h1v1h-1zM19 20h1v1h-1zM14 22h2v1h-2zM27 22h1v1h-1zM15 23h1v1h-1zM15 24h2v1h-2zM15 25h2v1h-2zM15 26h2v1h-2zM15 27h2v1h-2z"/><path fill="#7a7f88" d="M20 20h1v1h-1z"/><path fill="#5b6579" d="M12 25h1v1h-1zM10 26h3v1h-3zM10 27h3v1h-3zM15 28h2v1h-2zM14 29h7v1h-7zM14 30h5v1h-5zM20 30h5v1h-5zM12 31h1v1h-1zM14 31h5v1h-5zM20 31h5v1h-5zM12 32h1v1h-1zM14 32h5v1h-5zM20 32h5v1h-5zM12 33h1v1h-1zM14 33h6v1h-6zM21 33h4v1h-4zM12 34h2v1h-2zM15 34h6v1h-6zM22 34h3v1h-3zM12 35h3v1h-3zM16 35h6v1h-6zM23 35h2v1h-2zM12 36h4v1h-4zM17 36h6v1h-6zM24 36h1v1h-1zM12 37h5v1h-5zM18 37h6v1h-6zM12 38h6v1h-6zM19 38h6v1h-6zM12 39h7v1h-7zM20 39h5v1h-5zM12 40h8v1h-8zM21 40h4v1h-4zM12 41h9v1h-9zM12 42h10v1h-10zM12 43h10v1h-10z"/><path fill="#48505f" d="M12 30h1v1h-1z"/><path fill="#856d56" d="M45 43h2v1h-2zM45 44h2v1h-2zM45 45h2v1h-2zM44 46h3v1h-3zM44 47h3v1h-3zM43 48h4v1h-4zM43 49h4v1h-4z"/><path fill="#6a6259" d="M12 44h10v1h-10zM29 44h6v1h-6zM12 45h4v1h-4zM17 45h12v1h-12zM30 45h6v1h-6zM12 46h2v1h-2zM15 46h10v1h-10zM26 46h5v1h-5zM32 46h5v1h-5zM12 47h9v1h-9zM22 47h10v1h-10zM33 47h5v1h-5zM12 48h13v1h-13zM26 48h9v1h-9zM36 48h3v1h-3z"/><path fill="#5b544c" d="M16 45h1v1h-1zM29 45h1v1h-1zM14 46h1v1h-1zM31 46h1v1h-1zM21 47h1v1h-1zM25 48h1v1h-1zM35 48h1v1h-1zM12 49h30v1h-30z"/><path fill="#7d756b" d="M25 46h1v1h-1zM32 47h1v1h-1z"/></svg>
