<svg xmlns="http://www.w3.org/2000/svg" width="51" height="62" viewBox="0 0 51 62" shape-rendering="crispEdges"><style>.f{visibility:hidden}#f0{animation:f0 900ms step-end infinite}#f1{animation:f1 900ms step-end infinite}#f2{animation:f2 900ms step-end infinite}@keyframes f0{0%{visibility:visible}38.8889%{visibility:hidden}}@keyframes f1{0%{visibility:hidden}38.8889%{visibility:visible}66.6667%{visibility:hidden}}@keyframes f2{0%{visibility:hidden}66.6667%{visibility:visible}}@media (prefers-reduced-motion:reduce){#f0,#f1,#f2{animation:none}#f0{visibility:visible}}</style><g id="f0" class="f"><path fill="#463d33" d="M23 11h8v1h-8zM21 12h12v1h-12zM20 13h4v1h-4zM30 13h4v1h-4zM19 14h3v1h-3zM32 14h3v1h-3zM19 15h2v1h-2zM33 15h2v1h-2zM19 16h2v1h-2zM33 16h2v1h-2zM19 17h2v1h-2zM33 17h2v1h-2zM14 18h7v1h-7zM33 18h7v1h-7zM13 19h2v1h-2zM39 19h2v1h-2zM13 20h2v1h-2zM39 20h2v1h-2zM13 21h4v1h-4zM37 21h4v1h-4zM14 22h4v1h-4zM36 22h4v1h-4zM16 23h2v1h-2zM36 23h2v1h-2zM15 24h2v1h-2zM36 24h2v1h-2zM14 25h2v1h-2zM36 25h2v1h-2zM14 26h2v1h-2zM36 26h2v1h-2zM15 27h2v1h-2zM36 27h2v1h-2zM15 28h2v1h-2zM36 28h2v1h-2zM16 29h2v1h-2zM36 29h2v1h-2zM17 30h2v1h-2zM36 30h2v1h-2zM16 31h2v1h-2zM37 31h2v1h-2zM17 32h3v1h-3zM36 32h2v1h-2zM18 33h3v1h-3zM35 33h3v1h-3zM20 34h2v1h-2zM36 34h2v1h-2zM17 35h5v1h-5zM34 35h3v1h-3zM16 36h3v1h-3zM20 36h2v1h-2zM34 36h3v1h-3zM15 37h2v1h-2zM34 37h2v1h-2zM15 38h4v1h-4zM34 38h2v1h-2zM17 39h2v1h-2zM34 39h4v1h-4zM16 40h3v1h-3zM35 40h5v1h-5zM16 41h2v1h-2zM37 41h4v1h-4zM15 42h3v1h-3zM39 42h3v1h-3zM15 43h2v1h-2zM40 43h2v1h-2zM14 44h3v1h-3zM29 44h4v1h-4zM39 44h3v1h-3zM14 45h2v1h-2zM28 45h6v1h-6zM39 45h2v1h-2zM13 46h3v1h-3zM28 46h2v1h-2zM32 46h3v1h-3zM39 46h3v1h-3zM13 47h2v1h-2zM27 47h3v1h-3zM33 47h3v1h-3zM40 47h3v1h-3zM11 48h4v1h-4zM27 48h2v1h-2zM34 48h2v1h-2zM41 48h2v1h-2zM10 49h4v1h-4zM27 49h2v1h-2zM34 49h3v1h-3zM41 49h2v1h-2zM10 50h2v1h-2zM27 50h4v1h-4zM35 50h2v1h-2zM41 50h2v1h-2zM10 51h2v1h-2zM27 51h6v1h-6zM35 51h2v1h-2zM41 51h2v1h-2zM10 52h2v1h-2zM30 52h13v1h-13zM10 53h2v1h-2zM32 53h10v1h-10zM10 54h2v1h-2zM35 54h2v1h-2zM0 55h6v1h-6zM10 55h2v1h-2zM35 55h2v1h-2zM0 56h12v1h-12zM35 56h2v1h-2zM0 57h1v1h-1zM5 57h7v1h-7zM35 57h2v1h-2zM0 58h1v1h-1zM35 58h2v1h-2zM0 59h1v1h-1zM34 59h3v1h-3zM0 60h1v1h-1zM3 60h1v1h-1zM9 60h1v1h-1zM33 60h3v1h-3zM0 61h35v1h-35z"/><path fill="#d9b25a" d="M24 13h6v1h-6zM22 14h10v1h-10zM21 15h12v1h-12zM21 18h12v1h-12zM15 19h2v1h-2zM18 19h7v1h-7zM26 19h6v1h-6zM33 19h6v1h-6zM15 20h24v1h-24z"/><path fill="#6e3b2e" d="M21 16h12v1h-12zM21 17h12v1h-12z"/><path fill="#b8903f" d="M17 19h1v1h-1zM25 19h1v1h-1zM32 19h1v1h-1zM17 21h20v1h-20zM18 22h18v1h-18z"/><path fill="#563f33" d="M18 23h17v1h-17zM17 24h3v1h-3zM22 24h5v1h-5zM29 24h7v1h-7zM16 25h7v1h-7zM25 25h6v1h-6zM33 25h3v1h-3zM16 26h2v1h-2zM20 26h14v1h-14zM17 27h9v1h-9zM28 27h4v1h-4zM33 27h2v1h-2zM17 28h12v1h-12zM30 28h2v1h-2zM18 29h7v1h-7zM19 30h6v1h-6zM18 31h7v1h-7zM20 32h5v1h-5z"/><path fill="#1e1711" d="M35 23h1v1h-1zM34 28h1v1h-1zM25 29h3v1h-3zM34 29h1v1h-1zM25 30h1v1h-1zM25 31h1v1h-1zM25 32h3v1h-3zM27 35h2v1h-2zM27 36h7v1h-7zM20 37h2v1h-2zM27 37h7v1h-7zM19 38h3v1h-3zM24 38h10v1h-10zM19 39h2v1h-2zM33 39h1v1h-1zM30 42h2v1h-2zM29 43h5v1h-5zM38 44h1v1h-1zM26 49h1v1h-1zM34 54h1v1h-1zM12 57h19v1h-19zM3 58h2v1h-2zM9 58h1v1h-1zM3 59h1v1h-1zM9 59h1v1h-1z"/><path fill="#7c614c" d="M20 24h2v1h-2zM27 24h2v1h-2zM23 25h2v1h-2zM31 25h2v1h-2zM18 26h2v1h-2zM26 27h2v1h-2z"/><path fill="#e8b98f" d="M34 26h2v1h-2zM32 27h1v1h-1zM35 27h1v1h-1zM29 28h1v1h-1zM32 28h1v1h-1zM35 28h1v1h-1zM28 29h6v1h-6zM35 29h1v1h-1zM27 30h9v1h-9zM28 31h9v1h-9zM28 32h8v1h-8zM23 33h11v1h-11zM23 34h13v1h-13zM24 35h3v1h-3zM29 35h5v1h-5zM24 36h3v1h-3zM24 37h3v1h-3zM37 50h4v1h-4zM37 51h4v1h-4z"/><path fill="#efe3cf" d="M33 28h1v1h-1z"/><path fill="#cf9a6c" d="M26 30h1v1h-1zM26 31h1v1h-1zM21 33h2v1h-2zM34 33h1v1h-1zM22 34h1v1h-1zM22 35h2v1h-2zM22 36h2v1h-2zM22 37h2v1h-2z"/><path fill="#7a7f88" d="M27 31h1v1h-1z"/><path fill="#5b6579" d="M19 36h1v1h-1zM17 37h3v1h-3zM22 38h2v1h-2zM21 39h12v1h-12zM23 40h12v1h-12zM18 41h19v1h-19zM18 42h12v1h-12zM32 42h7v1h-7zM17 43h12v1h-12zM34 43h6v1h-6zM17 44h12v1h-12zM33 44h5v1h-5zM16 45h12v1h-12zM34 45h5v1h-5zM16 46h12v1h-12zM35 46h4v1h-4zM15 47h12v1h-12zM36 47h4v1h-4zM15 48h12v1h-12zM36 48h5v1h-5zM14 49h12v1h-12zM37 49h4v1h-4zM12 50h15v1h-15zM12 51h15v1h-15z"/><path fill="#48505f" d="M19 40h4v1h-4z"/><path fill="#6a6259" d="M12 52h18v1h-18zM12 53h4v1h-4zM17 53h15v1h-15zM12 54h22v1h-22zM12 55h14v1h-14zM27 55h8v1h-8zM12 56h23v1h-23zM31 57h4v1h-4zM10 58h25v1h-25zM10 59h10v1h-10zM21 59h13v1h-13zM10 60h23v1h-23z"/><path fill="#5b544c" d="M16 53h1v1h-1zM26 55h1v1h-1zM20 59h1v1h-1z"/><path fill="#6b5644" d="M1 57h4v1h-4zM1 58h2v1h-2zM1 59h2v1h-2zM1 60h2v1h-2z"/><path fill="#856d56" d="M5 58h4v1h-4zM4 59h5v1h-5zM4 60h5v1h-5z"/></g><g id="f1" class="f"><path fill="#463d33" d="M23 11h8v1h-8zM21 12h12v1h-12zM20 13h4v1h-4zM30 13h4v1h-4zM19 14h3v1h-3zM32 14h3v1h-3zM19 15h2v1h-2zM33 15h2v1h-2zM19 16h2v1h-2zM33 16h2v1h-2zM19 17h2v1h-2zM33 17h2v1h-2zM14 18h7v1h-7zM33 18h7v1h-7zM13 19h2v1h-2zM39 19h2v1h-2zM13 20h2v1h-2zM39 20h2v1h-2zM13 21h4v1h-4zM37 21h4v1h-4zM14 22h4v1h-4zM36 22h4v1h-4zM16 23h2v1h-2zM36 23h2v1h-2zM15 24h2v1h-2zM36 24h2v1h-2zM14 25h2v1h-2zM36 25h2v1h-2zM14 26h2v1h-2zM36 26h2v1h-2zM15 27h2v1h-2zM36 27h2v1h-2zM15 28h2v1h-2zM36 28h2v1h-2zM16 29h2v1h-2zM36 29h2v1h-2zM17 30h2v1h-2zM36 30h2v1h-2zM16 31h2v1h-2zM37 31h2v1h-2zM17 32h3v1h-3zM36 32h2v1h-2zM18 33h3v1h-3zM35 33h3v1h-3zM20 34h2v1h-2zM36 34h2v1h-2zM17 35h5v1h-5zM34 35h3v1h-3zM16 36h3v1h-3zM20 36h2v1h-2zM34 36h3v1h-3zM15 37h2v1h-2zM34 37h2v1h-2zM15 38h4v1h-4zM34 38h2v1h-2zM17 39h2v1h-2zM34 39h4v1h-4zM16 40h3v1h-3zM35 40h5v1h-5zM16 41h2v1h-2zM37 41h4v1h-4zM15 42h3v1h-3zM39 42h3v1h-3zM15 43h2v1h-2zM29 43h5v1h-5zM40 43h2v1h-2zM14 44h3v1h-3zM29 44h5v1h-5zM40 44h2v1h-2zM14 45h2v1h-2zM28 45h3v1h-3zM32 45h3v1h-3zM40 45h2v1h-2zM13 46h3v1h-3zM28 46h2v1h-2zM33 46h3v1h-3zM40 46h3v1h-3zM13 47h2v1h-2zM27 47h3v1h-3zM34 47h3v1h-3zM41 47h2v1h-2zM11 48h4v1h-4zM27 48h2v1h-2zM35 48h2v1h-2zM41 48h2v1h-2zM10 49h4v1h-4zM27 49h2v1h-2zM35 49h2v1h-2zM41 49h2v1h-2zM10 50h2v1h-2zM27 50h4v1h-4zM35 50h8v1h-8zM10 51h2v1h-2zM27 51h6v1h-6zM36 51h6v1h-6zM10 52h2v1h-2zM30 52h5v1h-5zM10 53h2v1h-2zM32 53h4v1h-4zM10 54h2v1h-2zM34 54h3v1h-3zM0 55h6v1h-6zM10 55h2v1h-2zM35 55h2v1h-2zM0 56h12v1h-12zM35 56h2v1h-2zM0 57h1v1h-1zM5 57h7v1h-7zM35 57h2v1h-2zM0 58h1v1h-1zM35 58h2v1h-2zM0 59h1v1h-1zM34 59h3v1h-3zM0 60h1v1h-1zM3 60h1v1h-1zM9 60h1v1h-1zM33 60h3v1h-3zM0 61h35v1h-35z"/><path fill="#d9b25a" d="M24 13h6v1h-6zM22 14h10v1h-10zM21 15h12v1h-12zM21 18h12v1h-12zM15 19h2v1h-2zM18 19h7v1h-7zM26 19h6v1h-6zM33 19h6v1h-6zM15 20h24v1h-24z"/><path fill="#6e3b2e" d="M21 16h12v1h-12zM21 17h12v1h-12z"/><path fill="#b8903f" d="M17 19h1v1h-1zM25 19h1v1h-1zM32 19h1v1h-1zM17 21h20v1h-20zM18 22h18v1h-18z"/><path fill="#563f33" d="M18 23h17v1h-17zM17 24h3v1h-3zM22 24h5v1h-5zM29 24h7v1h-7zM16 25h7v1h-7zM25 25h6v1h-6zM33 25h3v1h-3zM16 26h2v1h-2zM20 26h14v1h-14zM17 27h9v1h-9zM28 27h4v1h-4zM33 27h2v1h-2zM17 28h12v1h-12zM30 28h2v1h-2zM18 29h7v1h-7zM19 30h6v1h-6zM18 31h7v1h-7zM20 32h5v1h-5z"/><path fill="#1e1711" d="M35 23h1v1h-1zM34 28h1v1h-1zM25 29h3v1h-3zM34 29h1v1h-1zM25 30h1v1h-1zM25 31h1v1h-1zM25 32h3v1h-3zM27 35h2v1h-2zM27 36h7v1h-7zM20 37h2v1h-2zM27 37h7v1h-7zM19 38h3v1h-3zM24 38h10v1h-10zM19 39h2v1h-2zM33 39h1v1h-1zM30 42h2v1h-2zM39 44h1v1h-1zM26 49h1v1h-1zM12 57h19v1h-19zM3 58h2v1h-2zM9 58h1v1h-1zM3 59h1v1h-1zM9 59h1v1h-1z"/><path fill="#7c614c" d="M20 24h2v1h-2zM27 24h2v1h-2zM23 25h2v1h-2zM31 25h2v1h-2zM18 26h2v1h-2zM26 27h2v1h-2z"/><path fill="#e8b98f" d="M34 26h2v1h-2zM32 27h1v1h-1zM35 27h1v1h-1zM29 28h1v1h-1zM32 28h1v1h-1zM35 28h1v1h-1zM28 29h6v1h-6zM35 29h1v1h-1zM27 30h9v1h-9zM28 31h9v1h-9zM28 32h8v1h-8zM23 33h11v1h-11zM23 34h13v1h-13zM24 35h3v1h-3zM29 35h5v1h-5zM24 36h3v1h-3zM24 37h3v1h-3zM37 48h4v1h-4zM37 49h4v1h-4z"/><path fill="#efe3cf" d="M33 28h1v1h-1z"/><path fill="#cf9a6c" d="M26 30h1v1h-1zM26 31h1v1h-1zM21 33h2v1h-2zM34 33h1v1h-1zM22 34h1v1h-1zM22 35h2v1h-2zM22 36h2v1h-2zM22 37h2v1h-2z"/><path fill="#7a7f88" d="M27 31h1v1h-1z"/><path fill="#5b6579" d="M19 36h1v1h-1zM17 37h3v1h-3zM22 38h2v1h-2zM21 39h12v1h-12zM23 40h12v1h-12zM18 41h19v1h-19zM18 42h12v1h-12zM32 42h7v1h-7zM17 43h12v1h-12zM34 43h6v1h-6zM17 44h12v1h-12zM34 44h5v1h-5zM16 45h12v1h-12zM35 45h5v1h-5zM16 46h12v1h-12zM36 46h4v1h-4zM15 47h12v1h-12zM37 47h4v1h-4zM15 48h12v1h-12zM14 49h12v1h-12zM12 50h15v1h-15zM12 51h15v1h-15z"/><path fill="#48505f" d="M19 40h4v1h-4z"/><path fill="#6a6259" d="M12 52h18v1h-18zM12 53h4v1h-4zM17 53h15v1h-15zM12 54h22v1h-22zM12 55h14v1h-14zM27 55h8v1h-8zM12 56h23v1h-23zM31 57h4v1h-4zM10 58h25v1h-25zM10 59h10v1h-10zM21 59h13v1h-13zM10 60h23v1h-23z"/><path fill="#5b544c" d="M16 53h1v1h-1zM26 55h1v1h-1zM20 59h1v1h-1z"/><path fill="#6b5644" d="M1 57h4v1h-4zM1 58h2v1h-2zM1 59h2v1h-2zM1 60h2v1h-2z"/><path fill="#856d56" d="M5 58h4v1h-4zM4 59h5v1h-5zM4 60h5v1h-5z"/></g><g id="f2" class="f"><path fill="#463d33" d="M23 2h8v1h-8zM21 3h12v1h-12zM20 4h4v1h-4zM30 4h4v1h-4zM19 5h3v1h-3zM32 5h3v1h-3zM19 6h2v1h-2zM33 6h2v1h-2zM19 7h2v1h-2zM33 7h2v1h-2zM19 8h2v1h-2zM33 8h2v1h-2zM14 9h7v1h-7zM33 9h7v1h-7zM13 10h2v1h-2zM39 10h2v1h-2zM13 11h2v1h-2zM39 11h2v1h-2zM13 12h4v1h-4zM37 12h4v1h-4zM14 13h4v1h-4zM36 13h4v1h-4zM16 14h2v1h-2zM36 14h2v1h-2zM15 15h2v1h-2zM36 15h2v1h-2zM14 16h2v1h-2zM36 16h2v1h-2zM14 17h2v1h-2zM36 17h2v1h-2zM15 18h2v1h-2zM36 18h2v1h-2zM15 19h2v1h-2zM36 19h2v1h-2zM16 20h2v1h-2zM36 20h2v1h-2zM17 21h2v1h-2zM36 21h2v1h-2zM16 22h2v1h-2zM37 22h2v1h-2zM17 23h3v1h-3zM36 23h2v1h-2zM18 24h3v1h-3zM35 24h3v1h-3zM20 25h2v1h-2zM36 25h2v1h-2zM17 26h5v1h-5zM34 26h3v1h-3zM16 27h3v1h-3zM20 27h2v1h-2zM27 27h10v1h-10zM15 28h2v1h-2zM27 28h9v1h-9zM15 29h2v1h-2zM27 29h2v1h-2zM15 30h4v1h-4zM27 30h7v1h-7zM17 31h2v1h-2zM28 31h6v1h-6zM17 32h2v1h-2zM32 32h2v1h-2zM17 33h2v1h-2zM32 33h2v1h-2zM17 34h2v1h-2zM32 34h2v1h-2zM17 35h2v1h-2zM32 35h3v1h-3zM17 36h2v1h-2zM32 36h4v1h-4zM17 37h2v1h-2zM34 37h2v1h-2zM17 38h2v1h-2zM34 38h2v1h-2zM17 39h2v1h-2zM32 39h4v1h-4zM17 40h2v1h-2zM32 40h3v1h-3zM17 41h2v1h-2zM32 41h2v1h-2zM17 42h2v1h-2zM32 42h2v1h-2zM17 43h2v1h-2zM32 43h2v1h-2zM17 44h2v1h-2zM32 44h2v1h-2zM17 45h2v1h-2zM32 45h2v1h-2zM16 46h3v1h-3zM31 46h5v1h-5zM17 47h2v1h-2zM31 47h2v1h-2zM17 48h2v1h-2zM31 48h3v1h-3zM16 49h3v1h-3zM32 49h3v1h-3zM16 50h2v1h-2zM33 50h3v1h-3zM15 51h3v1h-3zM23 51h3v1h-3zM34 51h3v1h-3zM15 52h2v1h-2zM22 52h5v1h-5zM35 52h2v1h-2zM14 53h3v1h-3zM22 53h2v1h-2zM25 53h2v1h-2zM35 53h3v1h-3zM14 54h2v1h-2zM22 54h2v1h-2zM25 54h2v1h-2zM36 54h2v1h-2zM13 55h3v1h-3zM22 55h2v1h-2zM25 55h2v1h-2zM36 55h3v1h-3zM13 56h2v1h-2zM22 56h2v1h-2zM25 56h2v1h-2zM37 56h2v1h-2zM13 57h2v1h-2zM22 57h2v1h-2zM25 57h3v1h-3zM37 57h2v1h-2zM12 58h2v1h-2zM23 58h2v1h-2zM26 58h2v1h-2zM37 58h2v1h-2zM12 59h2v1h-2zM23 59h2v1h-2zM26 59h2v1h-2zM37 59h2v1h-2zM12 60h13v1h-13zM26 60h13v1h-13zM13 61h11v1h-11zM27 61h11v1h-11z"/><path fill="#d9b25a" d="M24 4h6v1h-6zM22 5h10v1h-10zM21 6h12v1h-12zM21 9h12v1h-12zM15 10h2v1h-2zM18 10h7v1h-7zM26 10h6v1h-6zM33 10h6v1h-6zM15 11h24v1h-24z"/><path fill="#6e3b2e" d="M21 7h12v1h-12zM21 8h12v1h-12z"/><path fill="#b8903f" d="M17 10h1v1h-1zM25 10h1v1h-1zM32 10h1v1h-1zM17 12h20v1h-20zM18 13h18v1h-18z"/><path fill="#563f33" d="M18 14h17v1h-17zM17 15h3v1h-3zM22 15h5v1h-5zM29 15h7v1h-7zM16 16h7v1h-7zM25 16h6v1h-6zM33 16h3v1h-3zM16 17h2v1h-2zM20 17h14v1h-14zM17 18h9v1h-9zM28 18h4v1h-4zM33 18h2v1h-2zM17 19h12v1h-12zM30 19h2v1h-2zM18 20h7v1h-7zM19 21h6v1h-6zM18 22h7v1h-7zM20 23h5v1h-5z"/><path fill="#1e1711" d="M35 14h1v1h-1zM34 19h1v1h-1zM25 20h3v1h-3zM34 20h1v1h-1zM25 21h1v1h-1zM25 22h1v1h-1zM25 23h3v1h-3zM27 26h2v1h-2zM20 28h2v1h-2zM20 29h2v1h-2zM19 30h3v1h-3zM24 30h3v1h-3zM19 31h2v1h-2zM24 32h2v1h-2zM21 33h1v1h-1zM26 33h2v1h-2zM22 34h2v1h-2zM28 34h2v1h-2zM24 35h2v1h-2zM30 35h2v1h-2zM26 36h2v1h-2zM28 37h2v1h-2zM29 38h1v1h-1zM30 39h2v1h-2zM21 47h1v1h-1zM22 48h1v1h-1zM23 49h1v1h-1zM24 50h1v1h-1z"/><path fill="#7c614c" d="M20 15h2v1h-2zM27 15h2v1h-2zM23 16h2v1h-2zM31 16h2v1h-2zM18 17h2v1h-2zM26 18h2v1h-2z"/><path fill="#e8b98f" d="M34 17h2v1h-2zM32 18h1v1h-1zM35 18h1v1h-1zM29 19h1v1h-1zM32 19h1v1h-1zM35 19h1v1h-1zM28 20h6v1h-6zM35 20h1v1h-1zM27 21h9v1h-9zM28 22h9v1h-9zM28 23h8v1h-8zM23 24h11v1h-11zM23 25h13v1h-13zM24 26h3v1h-3zM29 26h5v1h-5zM24 27h3v1h-3zM24 28h3v1h-3zM24 29h3v1h-3zM30 37h4v1h-4zM30 38h4v1h-4z"/><path fill="#efe3cf" d="M33 19h1v1h-1z"/><path fill="#cf9a6c" d="M26 21h1v1h-1zM26 22h1v1h-1zM21 24h2v1h-2zM34 24h1v1h-1zM22 25h1v1h-1zM22 26h2v1h-2zM22 27h2v1h-2zM22 28h2v1h-2zM22 29h2v1h-2z"/><path fill="#7a7f88" d="M27 22h1v1h-1z"/><path fill="#5b6579" d="M19 27h1v1h-1zM17 28h3v1h-3zM17 29h3v1h-3zM22 30h2v1h-2zM21 31h7v1h-7zM21 32h3v1h-3zM26 32h6v1h-6zM19 33h2v1h-2zM22 33h4v1h-4zM28 33h4v1h-4zM19 34h3v1h-3zM24 34h4v1h-4zM30 34h2v1h-2zM19 35h5v1h-5zM26 35h4v1h-4zM19 36h7v1h-7zM28 36h4v1h-4zM19 37h9v1h-9zM19 38h10v1h-10zM19 39h11v1h-11zM19 40h13v1h-13zM19 41h13v1h-13zM19 42h13v1h-13zM19 43h13v1h-13zM19 44h13v1h-13zM19 45h13v1h-13z"/><path fill="#48505f" d="M19 32h2v1h-2z"/><path fill="#6a6259" d="M19 46h12v1h-12zM22 47h9v1h-9zM23 48h8v1h-8zM24 49h5v1h-5zM30 49h2v1h-2zM25 50h5v1h-5zM31 50h2v1h-2zM26 51h5v1h-5zM32 51h2v1h-2zM27 52h4v1h-4zM32 52h3v1h-3zM27 53h5v1h-5zM33 53h2v1h-2zM27 54h5v1h-5zM33 54h3v1h-3zM27 55h6v1h-6zM34 55h2v1h-2zM27 56h10v1h-10z"/><path fill="#524b44" d="M19 47h2v1h-2zM19 48h3v1h-3zM19 49h4v1h-4zM18 50h6v1h-6zM18 51h5v1h-5zM17 52h5v1h-5zM17 53h5v1h-5zM16 54h6v1h-6zM16 55h6v1h-6zM15 56h7v1h-7zM15 57h7v1h-7z"/><path fill="#5b544c" d="M29 49h1v1h-1zM30 50h1v1h-1zM31 51h1v1h-1zM31 52h1v1h-1zM32 53h1v1h-1zM32 54h1v1h-1zM33 55h1v1h-1zM28 57h9v1h-9z"/><path fill="#6b5644" d="M14 58h9v1h-9zM14 59h9v1h-9z"/><path fill="#856d56" d="M28 58h9v1h-9zM28 59h9v1h-9z"/></g></svg>
