<svg xmlns="http://www.w3.org/2000/svg" width="36" height="62" viewBox="0 0 36 62" shape-rendering="crispEdges"><path fill="#463d33" d="M16 1h8v1h-8zM14 2h12v1h-12zM13 3h4v1h-4zM23 3h4v1h-4zM12 4h3v1h-3zM25 4h3v1h-3zM12 5h2v1h-2zM26 5h2v1h-2zM12 6h2v1h-2zM26 6h2v1h-2zM12 7h2v1h-2zM26 7h2v1h-2zM7 8h7v1h-7zM26 8h7v1h-7zM6 9h2v1h-2zM32 9h2v1h-2zM6 10h2v1h-2zM32 10h2v1h-2zM6 11h4v1h-4zM30 11h4v1h-4zM7 12h4v1h-4zM29 12h4v1h-4zM9 13h2v1h-2zM29 13h2v1h-2zM8 14h2v1h-2zM29 14h2v1h-2zM7 15h2v1h-2zM29 15h2v1h-2zM7 16h2v1h-2zM29 16h2v1h-2zM8 17h2v1h-2zM29 17h2v1h-2zM8 18h2v1h-2zM29 18h2v1h-2zM9 19h2v1h-2zM29 19h2v1h-2zM10 20h2v1h-2zM29 20h2v1h-2zM9 21h2v1h-2zM30 21h2v1h-2zM10 22h3v1h-3zM29 22h2v1h-2zM11 23h3v1h-3zM28 23h3v1h-3zM13 24h2v1h-2zM29 24h2v1h-2zM10 25h5v1h-5zM27 25h3v1h-3zM9 26h3v1h-3zM13 26h2v1h-2zM20 26h10v1h-10zM8 27h2v1h-2zM20 27h9v1h-9zM8 28h2v1h-2zM20 28h2v1h-2zM8 29h4v1h-4zM20 29h7v1h-7zM10 30h2v1h-2zM20 30h7v1h-7zM10 31h2v1h-2zM25 31h2v1h-2zM10 32h2v1h-2zM25 32h2v1h-2zM10 33h2v1h-2zM25 33h2v1h-2zM10 34h2v1h-2zM25 34h2v1h-2zM10 35h2v1h-2zM25 35h2v1h-2zM10 36h2v1h-2zM25 36h2v1h-2zM10 37h2v1h-2zM25 37h2v1h-2zM10 38h2v1h-2zM25 38h2v1h-2zM10 39h2v1h-2zM25 39h2v1h-2zM10 40h2v1h-2zM25 40h2v1h-2zM10 41h2v1h-2zM25 41h2v1h-2zM10 42h2v1h-2zM25 42h2v1h-2zM10 43h2v1h-2zM25 43h2v1h-2zM10 44h3v1h-3zM24 44h3v1h-3zM9 45h5v1h-5zM23 45h6v1h-6zM12 46h2v1h-2zM23 46h2v1h-2zM12 47h2v1h-2zM23 47h3v1h-3zM12 48h2v1h-2zM24 48h3v1h-3zM12 49h2v1h-2zM25 49h3v1h-3zM12 50h2v1h-2zM26 50h3v1h-3zM12 51h2v1h-2zM27 51h2v1h-2zM12 52h2v1h-2zM27 52h2v1h-2zM12 53h2v1h-2zM27 53h2v1h-2zM12 54h2v1h-2zM27 54h2v1h-2zM12 55h2v1h-2zM28 55h3v1h-3zM12 56h2v1h-2zM28 56h3v1h-3zM12 57h2v1h-2zM23 57h8v1h-8zM12 58h2v1h-2zM23 58h7v1h-7zM12 59h2v1h-2zM23 59h2v1h-2zM12 60h13v1h-13zM13 61h11v1h-11z"/><path fill="#d9b25a" d="M17 3h6v1h-6zM15 4h10v1h-10zM14 5h12v1h-12zM14 8h12v1h-12zM8 9h2v1h-2zM11 9h7v1h-7zM19 9h6v1h-6zM26 9h6v1h-6zM8 10h24v1h-24z"/><path fill="#6e3b2e" d="M14 6h12v1h-12zM14 7h12v1h-12z"/><path fill="#b8903f" d="M10 9h1v1h-1zM18 9h1v1h-1zM25 9h1v1h-1zM10 11h20v1h-20zM11 12h18v1h-18z"/><path fill="#563f33" d="M11 13h17v1h-17zM10 14h3v1h-3zM15 14h5v1h-5zM22 14h7v1h-7zM9 15h7v1h-7zM18 15h6v1h-6zM26 15h3v1h-3zM9 16h2v1h-2zM13 16h14v1h-14zM10 17h9v1h-9zM21 17h4v1h-4zM26 17h2v1h-2zM10 18h12v1h-12zM23 18h2v1h-2zM11 19h7v1h-7zM12 20h6v1h-6zM11 21h7v1h-7zM13 22h5v1h-5z"/><path fill="#1e1711" d="M28 13h1v1h-1zM27 18h1v1h-1zM18 19h3v1h-3zM27 19h1v1h-1zM18 20h1v1h-1zM18 21h1v1h-1zM18 22h3v1h-3zM20 25h2v1h-2zM13 27h2v1h-2zM13 28h2v1h-2zM12 29h3v1h-3zM17 29h3v1h-3zM12 30h3v1h-3zM14 31h1v1h-1zM20 31h1v1h-1zM14 32h1v1h-1zM20 32h1v1h-1zM14 33h1v1h-1zM20 33h1v1h-1zM14 34h1v1h-1zM20 34h1v1h-1zM14 35h1v1h-1zM20 35h1v1h-1zM14 36h1v1h-1zM20 36h1v1h-1zM14 37h1v1h-1zM20 37h1v1h-1zM14 38h1v1h-1zM20 38h1v1h-1zM14 39h1v1h-1zM20 39h1v1h-1zM14 40h1v1h-1zM20 40h1v1h-1zM14 41h1v1h-1zM20 41h1v1h-1zM14 42h7v1h-7zM14 43h1v1h-1zM20 43h1v1h-1zM14 44h1v1h-1zM20 44h1v1h-1zM14 47h1v1h-1zM15 48h1v1h-1zM16 49h1v1h-1zM17 50h1v1h-1zM18 51h1v1h-1zM18 52h1v1h-1zM18 53h1v1h-1zM17 54h1v1h-1zM19 55h1v1h-1zM19 56h1v1h-1zM19 57h4v1h-4z"/><path fill="#7c614c" d="M13 14h2v1h-2zM20 14h2v1h-2zM16 15h2v1h-2zM24 15h2v1h-2zM11 16h2v1h-2zM19 17h2v1h-2z"/><path fill="#e8b98f" d="M27 16h2v1h-2zM25 17h1v1h-1zM28 17h1v1h-1zM22 18h1v1h-1zM25 18h1v1h-1zM28 18h1v1h-1zM21 19h6v1h-6zM28 19h1v1h-1zM20 20h9v1h-9zM21 21h9v1h-9zM21 22h8v1h-8zM16 23h11v1h-11zM16 24h13v1h-13zM17 25h3v1h-3zM22 25h5v1h-5zM17 26h3v1h-3zM17 27h3v1h-3zM17 28h3v1h-3zM15 43h5v1h-5zM15 44h5v1h-5z"/><path fill="#efe3cf" d="M26 18h1v1h-1z"/><path fill="#cf9a6c" d="M19 20h1v1h-1zM19 21h1v1h-1zM14 23h2v1h-2zM27 23h1v1h-1zM15 24h1v1h-1zM15 25h2v1h-2zM15 26h2v1h-2zM15 27h2v1h-2zM15 28h2v1h-2z"/><path fill="#7a7f88" d="M20 21h1v1h-1z"/><path fill="#5b6579" d="M12 26h1v1h-1zM10 27h3v1h-3zM10 28h3v1h-3zM15 29h2v1h-2zM15 30h5v1h-5zM15 31h5v1h-5zM21 31h4v1h-4zM12 32h2v1h-2zM15 32h5v1h-5zM21 32h4v1h-4zM12 33h2v1h-2zM15 33h5v1h-5zM21 33h4v1h-4zM12 34h2v1h-2zM15 34h5v1h-5zM21 34h4v1h-4zM12 35h2v1h-2zM15 35h5v1h-5zM21 35h4v1h-4zM12 36h2v1h-2zM15 36h5v1h-5zM21 36h4v1h-4zM12 37h2v1h-2zM15 37h5v1h-5zM21 37h4v1h-4zM12 38h2v1h-2zM15 38h5v1h-5zM21 38h4v1h-4zM12 39h2v1h-2zM15 39h5v1h-5zM21 39h4v1h-4zM12 40h2v1h-2zM15 40h5v1h-5zM21 40h4v1h-4zM12 41h2v1h-2zM15 41h5v1h-5zM21 41h4v1h-4zM12 42h2v1h-2zM21 42h4v1h-4zM12 43h2v1h-2zM21 43h4v1h-4zM13 44h1v1h-1zM21 44h3v1h-3z"/><path fill="#48505f" d="M12 31h2v1h-2z"/><path fill="#6a6259" d="M14 45h9v1h-9zM14 46h9v1h-9zM15 47h8v1h-8zM16 48h8v1h-8zM17 49h8v1h-8zM18 50h8v1h-8zM19 51h8v1h-8zM19 52h4v1h-4zM24 52h3v1h-3zM19 53h4v1h-4zM24 53h3v1h-3z"/><path fill="#524b44" d="M14 48h1v1h-1zM14 49h2v1h-2zM14 50h3v1h-3zM14 51h4v1h-4zM14 52h4v1h-4zM14 53h4v1h-4zM14 54h3v1h-3zM14 55h5v1h-5zM14 56h5v1h-5zM14 57h5v1h-5z"/><path fill="#5b544c" d="M23 52h1v1h-1zM23 53h1v1h-1zM18 54h9v1h-9z"/><path fill="#856d56" d="M20 55h8v1h-8zM20 56h8v1h-8z"/><path fill="#6b5644" d="M14 58h9v1h-9zM14 59h9v1h-9z"/></svg>
