<svg xmlns="http://www.w3.org/2000/svg" width="30" height="34" viewBox="0 0 30 34" shape-rendering="crispEdges"><path fill="#463d33" d="M12 2h10v1h-10zM11 3h2v1h-2zM21 3h2v1h-2zM11 4h2v1h-2zM21 4h2v1h-2zM11 5h2v1h-2zM21 5h2v1h-2zM11 6h2v1h-2zM21 6h2v1h-2zM6 7h7v1h-7zM21 7h7v1h-7zM6 8h2v1h-2zM26 8h2v1h-2zM6 9h4v1h-4zM24 9h4v1h-4zM9 10h2v1h-2zM23 10h2v1h-2zM9 11h2v1h-2zM23 11h4v1h-4zM9 12h2v1h-2zM23 12h2v1h-2zM26 12h1v1h-1zM9 13h2v1h-2zM23 13h2v1h-2zM26 13h1v1h-1zM9 14h2v1h-2zM23 14h4v1h-4zM9 15h2v1h-2zM23 15h2v1h-2zM9 16h2v1h-2zM23 16h2v1h-2zM9 17h2v1h-2zM23 17h2v1h-2zM6 18h5v1h-5zM23 18h5v1h-5zM6 19h2v1h-2zM10 19h1v1h-1zM23 19h1v1h-1zM26 19h2v1h-2zM6 20h2v1h-2zM26 20h2v1h-2zM6 21h2v1h-2zM26 21h2v1h-2zM6 22h2v1h-2zM26 22h2v1h-2zM6 23h2v1h-2zM26 23h2v1h-2zM6 24h2v1h-2zM26 24h4v1h-4zM6 25h1v1h-1zM23 25h2v1h-2zM29 25h1v1h-1zM6 26h1v1h-1zM22 26h3v1h-3zM29 26h1v1h-1zM6 27h4v1h-4zM14 27h4v1h-4zM22 27h1v1h-1zM24 27h2v1h-2zM28 27h2v1h-2zM8 28h2v1h-2zM14 28h1v1h-1zM17 28h1v1h-1zM22 28h1v1h-1zM24 28h1v1h-1zM29 28h1v1h-1zM8 29h2v1h-2zM14 29h1v1h-1zM17 29h1v1h-1zM22 29h1v1h-1zM24 29h1v1h-1zM29 29h1v1h-1zM8 30h2v1h-2zM14 30h1v1h-1zM17 30h1v1h-1zM22 30h1v1h-1zM24 30h1v1h-1zM29 30h1v1h-1zM8 31h2v1h-2zM14 31h1v1h-1zM17 31h1v1h-1zM22 31h1v1h-1zM24 31h1v1h-1zM29 31h1v1h-1zM8 32h2v1h-2zM14 32h1v1h-1zM17 32h1v1h-1zM22 32h1v1h-1zM24 32h1v1h-1zM29 32h1v1h-1zM8 33h7v1h-7zM17 33h6v1h-6zM24 33h6v1h-6z"/><path fill="#d9b25a" d="M13 3h8v1h-8zM13 4h8v1h-8zM13 7h8v1h-8zM8 8h2v1h-2zM11 8h6v1h-6zM18 8h5v1h-5zM24 8h2v1h-2z"/><path fill="#6e3b2e" d="M13 5h8v1h-8zM13 6h8v1h-8z"/><path fill="#b8903f" d="M10 8h1v1h-1zM17 8h1v1h-1zM23 8h1v1h-1zM10 9h14v1h-14z"/><path fill="#d1913f" d="M11 10h12v1h-12zM11 11h1v1h-1zM22 11h1v1h-1zM11 12h1v1h-1zM22 12h1v1h-1zM25 12h1v1h-1zM11 13h1v1h-1zM22 13h1v1h-1zM25 13h1v1h-1zM11 14h1v1h-1zM22 14h1v1h-1zM11 15h4v1h-4zM19 15h4v1h-4zM11 16h12v1h-12zM14 18h6v1h-6zM14 19h6v1h-6zM14 20h6v1h-6zM14 21h6v1h-6zM14 22h6v1h-6zM8 23h2v1h-2zM14 23h6v1h-6zM24 23h2v1h-2zM8 24h2v1h-2zM14 24h6v1h-6zM24 24h2v1h-2zM7 25h3v1h-3zM14 25h6v1h-6zM25 25h4v1h-4zM7 26h3v1h-3zM25 26h4v1h-4z"/><path fill="#a86f2c" d="M12 11h10v1h-10zM12 12h1v1h-1zM15 12h4v1h-4zM21 12h1v1h-1zM12 13h1v1h-1zM15 13h4v1h-4zM21 13h1v1h-1zM12 14h10v1h-10z"/><path fill="#efe3cf" d="M13 12h2v1h-2zM19 12h2v1h-2zM13 13h2v1h-2zM19 13h2v1h-2z"/><path fill="#1e1711" d="M15 15h4v1h-4zM11 17h12v1h-12zM10 20h1v1h-1zM23 20h1v1h-1zM10 21h1v1h-1zM23 21h1v1h-1zM8 22h3v1h-3zM23 22h3v1h-3zM10 23h1v1h-1zM23 23h1v1h-1zM10 24h1v1h-1zM23 24h1v1h-1zM10 25h1v1h-1zM10 26h1v1h-1zM10 27h1v1h-1zM26 27h2v1h-2z"/><path fill="#a8674a" d="M11 18h3v1h-3zM20 18h3v1h-3zM8 19h2v1h-2zM24 19h2v1h-2zM8 20h2v1h-2zM11 20h1v1h-1zM13 20h1v1h-1zM20 20h1v1h-1zM22 20h1v1h-1zM24 20h2v1h-2zM8 21h2v1h-2zM11 21h1v1h-1zM13 21h1v1h-1zM20 21h1v1h-1zM22 21h1v1h-1zM24 21h2v1h-2zM11 23h1v1h-1zM13 23h1v1h-1zM20 23h1v1h-1zM22 23h1v1h-1zM11 24h1v1h-1zM13 24h1v1h-1zM20 24h1v1h-1zM22 24h1v1h-1zM11 25h1v1h-1zM13 25h1v1h-1zM20 25h1v1h-1zM22 25h1v1h-1z"/><path fill="#8f5439" d="M11 19h3v1h-3zM20 19h3v1h-3zM12 20h1v1h-1zM21 20h1v1h-1zM12 21h1v1h-1zM21 21h1v1h-1zM11 22h3v1h-3zM20 22h3v1h-3zM12 23h1v1h-1zM21 23h1v1h-1zM12 24h1v1h-1zM21 24h1v1h-1zM12 25h1v1h-1zM21 25h1v1h-1z"/><path fill="#6a6259" d="M11 26h11v1h-11zM11 27h3v1h-3zM18 27h4v1h-4zM10 28h2v1h-2zM13 28h1v1h-1zM18 28h1v1h-1zM20 28h2v1h-2zM10 29h4v1h-4zM18 29h4v1h-4zM10 30h4v1h-4zM18 30h4v1h-4z"/><path fill="#7d756b" d="M12 28h1v1h-1zM19 28h1v1h-1z"/><path fill="#b9b2a6" d="M25 28h4v1h-4zM25 29h4v1h-4zM25 30h4v1h-4zM25 31h4v1h-4zM25 32h4v1h-4z"/><path fill="#54423a" d="M10 31h4v1h-4zM18 31h4v1h-4zM10 32h4v1h-4zM18 32h4v1h-4z"/></svg>
