<svg xmlns="http://www.w3.org/2000/svg" width="7" height="14" viewBox="0 0 7 14" shape-rendering="crispEdges"><path fill="#463d33" d="M1 1h6v1h-6zM1 2h1v1h-1zM6 2h1v1h-1zM1 3h1v1h-1zM6 3h1v1h-1zM1 4h1v1h-1zM6 4h1v1h-1zM1 5h1v1h-1zM6 5h1v1h-1zM1 6h1v1h-1zM6 6h1v1h-1zM0 7h3v1h-3zM4 7h3v1h-3zM0 8h1v1h-1zM5 8h1v1h-1zM0 9h1v1h-1zM5 9h1v1h-1zM0 10h1v1h-1zM5 10h1v1h-1zM0 11h1v1h-1zM5 11h1v1h-1zM0 12h1v1h-1zM5 12h1v1h-1zM0 13h6v1h-6z"/><path fill="#b9b2a6" d="M2 2h4v1h-4zM2 3h4v1h-4zM2 4h4v1h-4zM2 5h4v1h-4zM2 6h4v1h-4zM1 8h4v1h-4zM1 9h4v1h-4zM1 10h4v1h-4zM1 11h4v1h-4zM1 12h4v1h-4z"/><path fill="#1e1711" d="M3 7h1v1h-1z"/></svg>
