<svg xmlns="http://www.w3.org/2000/svg" width="34" height="26" viewBox="0 0 34 26" shape-rendering="crispEdges"><style>.f{visibility:hidden}#f0{animation:f0 880ms step-end infinite}#f1{animation:f1 880ms step-end infinite}#f2{animation:f2 880ms step-end infinite}#f3{animation:f3 880ms step-end infinite}#f4{animation:f4 880ms step-end infinite}#f5{animation:f5 880ms step-end infinite}#f6{animation:f6 880ms step-end infinite}#f7{animation:f7 880ms step-end infinite}@keyframes f0{0%{visibility:visible}12.5%{visibility:hidden}}@keyframes f1{0%{visibility:hidden}12.5%{visibility:visible}25%{visibility:hidden}}@keyframes f2{0%{visibility:hidden}25%{visibility:visible}37.5%{visibility:hidden}}@keyframes f3{0%{visibility:hidden}37.5%{visibility:visible}50%{visibility:hidden}}@keyframes f4{0%{visibility:hidden}50%{visibility:visible}62.5%{visibility:hidden}}@keyframes f5{0%{visibility:hidden}62.5%{visibility:visible}75%{visibility:hidden}}@keyframes f6{0%{visibility:hidden}75%{visibility:visible}87.5%{visibility:hidden}}@keyframes f7{0%{visibility:hidden}87.5%{visibility:visible}}@media (prefers-reduced-motion:reduce){#f0,#f1,#f2,#f3,#f4,#f5,#f6,#f7{animation:none}#f0{visibility:visible}}</style><g id="f0" class="f"><path fill="#463d33" d="M15 2h3v1h-3zM30 2h3v1h-3zM14 3h1v1h-1zM18 3h1v1h-1zM29 3h1v1h-1zM33 3h1v1h-1zM14 4h1v1h-1zM18 4h1v1h-1zM29 4h1v1h-1zM33 4h1v1h-1zM14 5h1v1h-1zM19 5h1v1h-1zM28 5h1v1h-1zM33 5h1v1h-1zM14 6h2v1h-2zM20 6h2v1h-2zM26 6h2v1h-2zM32 6h2v1h-2zM14 7h2v1h-2zM20 7h8v1h-8zM32 7h2v1h-2zM4 8h12v1h-12zM21 8h6v1h-6zM32 8h2v1h-2zM2 9h14v1h-14zM32 9h2v1h-2zM1 10h4v1h-4zM32 10h2v1h-2zM0 11h3v1h-3zM32 11h2v1h-2zM0 12h2v1h-2zM32 12h2v1h-2zM0 13h2v1h-2zM32 13h2v1h-2zM0 14h2v1h-2zM31 14h3v1h-3zM0 15h2v1h-2zM31 15h2v1h-2zM0 16h3v1h-3zM31 16h2v1h-2zM1 17h3v1h-3zM31 17h2v1h-2zM2 18h2v1h-2zM5 18h7v1h-7zM26 18h7v1h-7zM2 19h2v1h-2zM5 19h7v1h-7zM13 19h11v1h-11zM26 19h6v1h-6zM2 20h1v1h-1zM6 20h1v1h-1zM10 20h2v1h-2zM13 20h11v1h-11zM27 20h1v1h-1zM2 21h1v1h-1zM6 21h1v1h-1zM10 21h1v1h-1zM14 21h1v1h-1zM22 21h2v1h-2zM27 21h1v1h-1zM2 22h1v1h-1zM6 22h1v1h-1zM10 22h1v1h-1zM14 22h1v1h-1zM22 22h2v1h-2zM27 22h1v1h-1zM2 23h1v1h-1zM6 23h1v1h-1zM10 23h1v1h-1zM14 23h1v1h-1zM22 23h2v1h-2zM25 23h3v1h-3zM2 24h1v1h-1zM6 24h1v1h-1zM10 24h1v1h-1zM14 24h1v1h-1zM22 24h1v1h-1zM26 24h1v1h-1zM2 25h5v1h-5zM10 25h5v1h-5zM22 25h5v1h-5z"/><path fill="#9a7570" d="M15 3h3v1h-3zM30 3h3v1h-3zM15 4h3v1h-3zM30 4h3v1h-3zM15 5h3v1h-3zM30 5h3v1h-3zM16 6h2v1h-2zM30 6h2v1h-2z"/><path fill="#6b5644" d="M18 5h1v1h-1zM29 5h1v1h-1zM18 6h2v1h-2zM28 6h2v1h-2zM16 7h4v1h-4zM28 7h4v1h-4zM16 8h5v1h-5zM27 8h5v1h-5zM16 9h5v1h-5zM27 9h5v1h-5zM16 10h16v1h-16zM3 11h11v1h-11zM16 11h2v1h-2zM20 11h2v1h-2zM26 11h2v1h-2zM30 11h2v1h-2zM2 12h3v1h-3zM8 12h6v1h-6zM16 12h2v1h-2zM20 12h2v1h-2zM26 12h2v1h-2zM30 12h2v1h-2zM2 13h12v1h-12zM16 13h6v1h-6zM26 13h6v1h-6zM2 14h9v1h-9zM16 14h4v1h-4zM28 14h3v1h-3zM2 15h2v1h-2zM7 15h8v1h-8zM3 16h1v1h-1zM30 16h1v1h-1zM29 17h2v1h-2zM24 20h3v1h-3zM11 21h3v1h-3zM24 21h3v1h-3zM11 22h3v1h-3zM24 22h3v1h-3zM11 23h3v1h-3zM11 24h3v1h-3z"/><path fill="#856d56" d="M21 9h6v1h-6zM5 10h9v1h-9z"/><path fill="#1e1711" d="M14 10h2v1h-2zM14 11h2v1h-2zM19 11h1v1h-1zM29 11h1v1h-1zM14 12h2v1h-2zM18 12h2v1h-2zM22 12h4v1h-4zM28 12h2v1h-2zM14 13h2v1h-2zM22 13h4v1h-4zM14 14h2v1h-2zM20 14h2v1h-2zM26 14h2v1h-2zM15 15h16v1h-16zM4 18h1v1h-1zM12 18h1v1h-1zM24 18h2v1h-2zM4 19h1v1h-1zM12 19h1v1h-1zM24 19h2v1h-2zM12 20h1v1h-1zM24 23h1v1h-1z"/><path fill="#efe3cf" d="M18 11h1v1h-1zM28 11h1v1h-1z"/><path fill="#4e3d33" d="M22 11h4v1h-4zM4 16h26v1h-26zM4 17h25v1h-25zM13 18h11v1h-11zM3 20h3v1h-3zM3 21h3v1h-3zM3 22h3v1h-3zM3 23h3v1h-3zM3 24h3v1h-3zM23 24h3v1h-3z"/><path fill="#8f6e4f" d="M5 12h3v1h-3zM11 14h3v1h-3zM4 15h3v1h-3z"/><path fill="#948a7e" d="M22 14h4v1h-4z"/></g><g id="f1" class="f"><path fill="#463d33" d="M15 2h3v1h-3zM30 2h3v1h-3zM14 3h1v1h-1zM18 3h1v1h-1zM29 3h1v1h-1zM33 3h1v1h-1zM14 4h1v1h-1zM18 4h1v1h-1zM29 4h1v1h-1zM33 4h1v1h-1zM14 5h1v1h-1zM19 5h1v1h-1zM28 5h1v1h-1zM33 5h1v1h-1zM14 6h2v1h-2zM20 6h2v1h-2zM26 6h2v1h-2zM32 6h2v1h-2zM14 7h2v1h-2zM20 7h8v1h-8zM32 7h2v1h-2zM4 8h12v1h-12zM21 8h6v1h-6zM32 8h2v1h-2zM2 9h14v1h-14zM32 9h2v1h-2zM1 10h4v1h-4zM32 10h2v1h-2zM0 11h3v1h-3zM32 11h2v1h-2zM0 12h2v1h-2zM32 12h2v1h-2zM0 13h2v1h-2zM32 13h2v1h-2zM0 14h2v1h-2zM31 14h3v1h-3zM0 15h2v1h-2zM31 15h2v1h-2zM0 16h3v1h-3zM31 16h2v1h-2zM1 17h3v1h-3zM31 17h2v1h-2zM2 18h4v1h-4zM28 18h5v1h-5zM3 19h3v1h-3zM11 19h11v1h-11zM28 19h4v1h-4zM4 20h1v1h-1zM12 20h10v1h-10zM29 20h1v1h-1zM4 21h1v1h-1zM12 21h1v1h-1zM20 21h1v1h-1zM29 21h1v1h-1zM4 22h1v1h-1zM12 22h1v1h-1zM20 22h1v1h-1zM29 22h1v1h-1zM4 23h1v1h-1zM8 23h1v1h-1zM12 23h1v1h-1zM20 23h1v1h-1zM24 23h2v1h-2zM29 23h1v1h-1zM4 24h5v1h-5zM12 24h1v1h-1zM20 24h1v1h-1zM24 24h6v1h-6zM8 25h5v1h-5zM20 25h5v1h-5z"/><path fill="#9a7570" d="M15 3h3v1h-3zM30 3h3v1h-3zM15 4h3v1h-3zM30 4h3v1h-3zM15 5h3v1h-3zM30 5h3v1h-3zM16 6h2v1h-2zM30 6h2v1h-2z"/><path fill="#6b5644" d="M18 5h1v1h-1zM29 5h1v1h-1zM18 6h2v1h-2zM28 6h2v1h-2zM16 7h4v1h-4zM28 7h4v1h-4zM16 8h5v1h-5zM27 8h5v1h-5zM16 9h5v1h-5zM27 9h5v1h-5zM16 10h16v1h-16zM3 11h11v1h-11zM16 11h2v1h-2zM20 11h2v1h-2zM26 11h2v1h-2zM30 11h2v1h-2zM2 12h3v1h-3zM8 12h6v1h-6zM16 12h2v1h-2zM20 12h2v1h-2zM26 12h2v1h-2zM30 12h2v1h-2zM2 13h12v1h-12zM16 13h6v1h-6zM26 13h6v1h-6zM2 14h9v1h-9zM16 14h4v1h-4zM28 14h3v1h-3zM2 15h2v1h-2zM7 15h8v1h-8zM3 16h1v1h-1zM30 16h1v1h-1zM29 17h2v1h-2zM9 20h3v1h-3zM26 20h3v1h-3zM9 21h3v1h-3zM26 21h3v1h-3zM9 22h3v1h-3zM26 22h3v1h-3zM9 23h3v1h-3zM26 23h3v1h-3zM9 24h3v1h-3z"/><path fill="#856d56" d="M21 9h6v1h-6zM5 10h9v1h-9z"/><path fill="#1e1711" d="M14 10h2v1h-2zM14 11h2v1h-2zM19 11h1v1h-1zM29 11h1v1h-1zM14 12h2v1h-2zM18 12h2v1h-2zM22 12h4v1h-4zM28 12h2v1h-2zM14 13h2v1h-2zM22 13h4v1h-4zM14 14h2v1h-2zM20 14h2v1h-2zM26 14h2v1h-2zM15 15h16v1h-16zM6 18h7v1h-7zM24 18h4v1h-4zM6 19h5v1h-5zM22 19h6v1h-6zM8 20h1v1h-1zM22 20h4v1h-4zM8 21h1v1h-1zM24 21h2v1h-2zM8 22h1v1h-1zM24 22h2v1h-2z"/><path fill="#efe3cf" d="M18 11h1v1h-1zM28 11h1v1h-1z"/><path fill="#4e3d33" d="M22 11h4v1h-4zM4 16h26v1h-26zM4 17h25v1h-25zM13 18h11v1h-11zM5 20h3v1h-3zM5 21h3v1h-3zM21 21h3v1h-3zM5 22h3v1h-3zM21 22h3v1h-3zM5 23h3v1h-3zM21 23h3v1h-3zM21 24h3v1h-3z"/><path fill="#8f6e4f" d="M5 12h3v1h-3zM11 14h3v1h-3zM4 15h3v1h-3z"/><path fill="#948a7e" d="M22 14h4v1h-4z"/></g><g id="f2" class="f"><path fill="#463d33" d="M15 3h3v1h-3zM30 3h3v1h-3zM14 4h1v1h-1zM18 4h1v1h-1zM29 4h1v1h-1zM33 4h1v1h-1zM14 5h1v1h-1zM18 5h1v1h-1zM29 5h1v1h-1zM33 5h1v1h-1zM14 6h1v1h-1zM19 6h1v1h-1zM28 6h1v1h-1zM33 6h1v1h-1zM14 7h2v1h-2zM20 7h2v1h-2zM26 7h2v1h-2zM32 7h2v1h-2zM14 8h2v1h-2zM20 8h8v1h-8zM32 8h2v1h-2zM4 9h12v1h-12zM21 9h6v1h-6zM32 9h2v1h-2zM2 10h14v1h-14zM32 10h2v1h-2zM1 11h4v1h-4zM32 11h2v1h-2zM0 12h3v1h-3zM32 12h2v1h-2zM0 13h2v1h-2zM32 13h2v1h-2zM0 14h2v1h-2zM32 14h2v1h-2zM0 15h2v1h-2zM31 15h3v1h-3zM0 16h2v1h-2zM31 16h2v1h-2zM0 17h3v1h-3zM31 17h2v1h-2zM1 18h3v1h-3zM31 18h2v1h-2zM2 19h6v1h-6zM24 19h4v1h-4zM29 19h4v1h-4zM3 20h5v1h-5zM10 20h10v1h-10zM21 20h7v1h-7zM29 20h3v1h-3zM6 21h1v1h-1zM10 21h10v1h-10zM21 21h3v1h-3zM26 21h1v1h-1zM30 21h1v1h-1zM6 22h1v1h-1zM10 22h2v1h-2zM18 22h1v1h-1zM22 22h1v1h-1zM26 22h1v1h-1zM30 22h1v1h-1zM6 23h1v1h-1zM10 23h2v1h-2zM18 23h1v1h-1zM22 23h1v1h-1zM26 23h1v1h-1zM30 23h1v1h-1zM6 24h1v1h-1zM10 24h1v1h-1zM18 24h1v1h-1zM22 24h1v1h-1zM26 24h1v1h-1zM30 24h1v1h-1zM6 25h5v1h-5zM18 25h5v1h-5zM26 25h5v1h-5z"/><path fill="#9a7570" d="M15 4h3v1h-3zM30 4h3v1h-3zM15 5h3v1h-3zM30 5h3v1h-3zM15 6h3v1h-3zM30 6h3v1h-3zM16 7h2v1h-2zM30 7h2v1h-2z"/><path fill="#6b5644" d="M18 6h1v1h-1zM29 6h1v1h-1zM18 7h2v1h-2zM28 7h2v1h-2zM16 8h4v1h-4zM28 8h4v1h-4zM16 9h5v1h-5zM27 9h5v1h-5zM16 10h5v1h-5zM27 10h5v1h-5zM16 11h16v1h-16zM3 12h11v1h-11zM16 12h2v1h-2zM20 12h2v1h-2zM26 12h2v1h-2zM30 12h2v1h-2zM2 13h3v1h-3zM8 13h6v1h-6zM16 13h2v1h-2zM20 13h2v1h-2zM26 13h2v1h-2zM30 13h2v1h-2zM2 14h12v1h-12zM16 14h6v1h-6zM26 14h6v1h-6zM2 15h9v1h-9zM16 15h4v1h-4zM28 15h3v1h-3zM2 16h2v1h-2zM7 16h8v1h-8zM3 17h1v1h-1zM30 17h1v1h-1zM29 18h2v1h-2zM7 21h3v1h-3zM27 21h3v1h-3zM7 22h3v1h-3zM27 22h3v1h-3zM7 23h3v1h-3zM27 23h3v1h-3zM7 24h3v1h-3zM27 24h3v1h-3z"/><path fill="#856d56" d="M21 10h6v1h-6zM5 11h9v1h-9z"/><path fill="#1e1711" d="M14 11h2v1h-2zM14 12h2v1h-2zM19 12h1v1h-1zM29 12h1v1h-1zM14 13h2v1h-2zM18 13h2v1h-2zM22 13h4v1h-4zM28 13h2v1h-2zM14 14h2v1h-2zM22 14h4v1h-4zM14 15h2v1h-2zM20 15h2v1h-2zM26 15h2v1h-2zM15 16h16v1h-16zM8 19h5v1h-5zM28 19h1v1h-1zM8 20h2v1h-2zM20 20h1v1h-1zM28 20h1v1h-1zM20 21h1v1h-1z"/><path fill="#efe3cf" d="M18 12h1v1h-1zM28 12h1v1h-1z"/><path fill="#4e3d33" d="M22 12h4v1h-4zM4 17h26v1h-26zM4 18h25v1h-25zM13 19h11v1h-11zM19 22h3v1h-3zM19 23h3v1h-3zM19 24h3v1h-3z"/><path fill="#8f6e4f" d="M5 13h3v1h-3zM11 15h3v1h-3zM4 16h3v1h-3z"/><path fill="#948a7e" d="M22 15h4v1h-4z"/></g><g id="f3" class="f"><path fill="#463d33" d="M15 3h3v1h-3zM30 3h3v1h-3zM14 4h1v1h-1zM18 4h1v1h-1zM29 4h1v1h-1zM33 4h1v1h-1zM14 5h1v1h-1zM18 5h1v1h-1zM29 5h1v1h-1zM33 5h1v1h-1zM14 6h1v1h-1zM19 6h1v1h-1zM28 6h1v1h-1zM33 6h1v1h-1zM14 7h2v1h-2zM20 7h2v1h-2zM26 7h2v1h-2zM32 7h2v1h-2zM14 8h2v1h-2zM20 8h8v1h-8zM32 8h2v1h-2zM4 9h12v1h-12zM21 9h6v1h-6zM32 9h2v1h-2zM2 10h14v1h-14zM32 10h2v1h-2zM1 11h4v1h-4zM32 11h2v1h-2zM0 12h3v1h-3zM32 12h2v1h-2zM0 13h2v1h-2zM32 13h2v1h-2zM0 14h2v1h-2zM32 14h2v1h-2zM0 15h2v1h-2zM31 15h3v1h-3zM0 16h2v1h-2zM31 16h2v1h-2zM0 17h3v1h-3zM31 17h2v1h-2zM1 18h3v1h-3zM31 18h2v1h-2zM2 19h4v1h-4zM27 19h6v1h-6zM3 20h3v1h-3zM12 20h10v1h-10zM27 20h5v1h-5zM4 21h1v1h-1zM12 21h10v1h-10zM28 21h1v1h-1zM4 22h1v1h-1zM13 22h1v1h-1zM20 22h1v1h-1zM28 22h1v1h-1zM4 23h1v1h-1zM8 23h2v1h-2zM13 23h1v1h-1zM20 23h1v1h-1zM24 23h1v1h-1zM28 23h1v1h-1zM4 24h1v1h-1zM8 24h6v1h-6zM20 24h5v1h-5zM28 24h1v1h-1zM4 25h5v1h-5zM24 25h5v1h-5z"/><path fill="#9a7570" d="M15 4h3v1h-3zM30 4h3v1h-3zM15 5h3v1h-3zM30 5h3v1h-3zM15 6h3v1h-3zM30 6h3v1h-3zM16 7h2v1h-2zM30 7h2v1h-2z"/><path fill="#6b5644" d="M18 6h1v1h-1zM29 6h1v1h-1zM18 7h2v1h-2zM28 7h2v1h-2zM16 8h4v1h-4zM28 8h4v1h-4zM16 9h5v1h-5zM27 9h5v1h-5zM16 10h5v1h-5zM27 10h5v1h-5zM16 11h16v1h-16zM3 12h11v1h-11zM16 12h2v1h-2zM20 12h2v1h-2zM26 12h2v1h-2zM30 12h2v1h-2zM2 13h3v1h-3zM8 13h6v1h-6zM16 13h2v1h-2zM20 13h2v1h-2zM26 13h2v1h-2zM30 13h2v1h-2zM2 14h12v1h-12zM16 14h6v1h-6zM26 14h6v1h-6zM2 15h9v1h-9zM16 15h4v1h-4zM28 15h3v1h-3zM2 16h2v1h-2zM7 16h8v1h-8zM3 17h1v1h-1zM30 17h1v1h-1zM29 18h2v1h-2zM5 21h3v1h-3zM25 21h3v1h-3zM5 22h3v1h-3zM25 22h3v1h-3zM5 23h3v1h-3zM25 23h3v1h-3zM5 24h3v1h-3zM25 24h3v1h-3z"/><path fill="#856d56" d="M21 10h6v1h-6zM5 11h9v1h-9z"/><path fill="#1e1711" d="M14 11h2v1h-2zM14 12h2v1h-2zM19 12h1v1h-1zM29 12h1v1h-1zM14 13h2v1h-2zM18 13h2v1h-2zM22 13h4v1h-4zM28 13h2v1h-2zM14 14h2v1h-2zM22 14h4v1h-4zM14 15h2v1h-2zM20 15h2v1h-2zM26 15h2v1h-2zM15 16h16v1h-16zM6 19h7v1h-7zM24 19h3v1h-3zM6 20h6v1h-6zM22 20h5v1h-5zM8 21h2v1h-2zM22 21h3v1h-3zM8 22h2v1h-2zM24 22h1v1h-1z"/><path fill="#efe3cf" d="M18 12h1v1h-1zM28 12h1v1h-1z"/><path fill="#4e3d33" d="M22 12h4v1h-4zM4 17h26v1h-26zM4 18h25v1h-25zM13 19h11v1h-11zM10 21h2v1h-2zM10 22h3v1h-3zM21 22h3v1h-3zM10 23h3v1h-3zM21 23h3v1h-3z"/><path fill="#8f6e4f" d="M5 13h3v1h-3zM11 15h3v1h-3zM4 16h3v1h-3z"/><path fill="#948a7e" d="M22 15h4v1h-4z"/></g><g id="f4" class="f"><path fill="#463d33" d="M15 2h3v1h-3zM30 2h3v1h-3zM14 3h1v1h-1zM18 3h1v1h-1zM29 3h1v1h-1zM33 3h1v1h-1zM14 4h1v1h-1zM18 4h1v1h-1zM29 4h1v1h-1zM33 4h1v1h-1zM14 5h1v1h-1zM19 5h1v1h-1zM28 5h1v1h-1zM33 5h1v1h-1zM14 6h2v1h-2zM20 6h2v1h-2zM26 6h2v1h-2zM32 6h2v1h-2zM14 7h2v1h-2zM20 7h8v1h-8zM32 7h2v1h-2zM4 8h12v1h-12zM21 8h6v1h-6zM32 8h2v1h-2zM2 9h14v1h-14zM32 9h2v1h-2zM1 10h4v1h-4zM32 10h2v1h-2zM0 11h3v1h-3zM32 11h2v1h-2zM0 12h2v1h-2zM32 12h2v1h-2zM0 13h2v1h-2zM32 13h2v1h-2zM0 14h2v1h-2zM31 14h3v1h-3zM0 15h2v1h-2zM31 15h2v1h-2zM0 16h3v1h-3zM31 16h2v1h-2zM1 17h3v1h-3zM31 17h2v1h-2zM2 18h2v1h-2zM5 18h7v1h-7zM26 18h7v1h-7zM2 19h2v1h-2zM5 19h7v1h-7zM13 19h11v1h-11zM26 19h6v1h-6zM2 20h1v1h-1zM6 20h1v1h-1zM10 20h2v1h-2zM13 20h11v1h-11zM26 20h2v1h-2zM2 21h1v1h-1zM6 21h1v1h-1zM10 21h1v1h-1zM14 21h1v1h-1zM22 21h1v1h-1zM26 21h2v1h-2zM2 22h1v1h-1zM6 22h1v1h-1zM10 22h1v1h-1zM14 22h1v1h-1zM22 22h1v1h-1zM26 22h2v1h-2zM2 23h1v1h-1zM6 23h1v1h-1zM10 23h1v1h-1zM14 23h1v1h-1zM22 23h1v1h-1zM26 23h2v1h-2zM2 24h1v1h-1zM6 24h1v1h-1zM10 24h1v1h-1zM14 24h1v1h-1zM22 24h1v1h-1zM26 24h1v1h-1zM2 25h5v1h-5zM10 25h5v1h-5zM22 25h5v1h-5z"/><path fill="#9a7570" d="M15 3h3v1h-3zM30 3h3v1h-3zM15 4h3v1h-3zM30 4h3v1h-3zM15 5h3v1h-3zM30 5h3v1h-3zM16 6h2v1h-2zM30 6h2v1h-2z"/><path fill="#6b5644" d="M18 5h1v1h-1zM29 5h1v1h-1zM18 6h2v1h-2zM28 6h2v1h-2zM16 7h4v1h-4zM28 7h4v1h-4zM16 8h5v1h-5zM27 8h5v1h-5zM16 9h5v1h-5zM27 9h5v1h-5zM16 10h16v1h-16zM3 11h11v1h-11zM16 11h2v1h-2zM20 11h2v1h-2zM26 11h2v1h-2zM30 11h2v1h-2zM2 12h3v1h-3zM8 12h6v1h-6zM16 12h2v1h-2zM20 12h2v1h-2zM26 12h2v1h-2zM30 12h2v1h-2zM2 13h12v1h-12zM16 13h6v1h-6zM26 13h6v1h-6zM2 14h9v1h-9zM16 14h4v1h-4zM28 14h3v1h-3zM2 15h2v1h-2zM7 15h8v1h-8zM3 16h1v1h-1zM30 16h1v1h-1zM29 17h2v1h-2zM3 20h3v1h-3zM24 20h2v1h-2zM3 21h3v1h-3zM23 21h3v1h-3zM3 22h3v1h-3zM23 22h3v1h-3zM3 23h3v1h-3zM23 23h3v1h-3zM3 24h3v1h-3zM23 24h3v1h-3z"/><path fill="#856d56" d="M21 9h6v1h-6zM5 10h9v1h-9z"/><path fill="#1e1711" d="M14 10h2v1h-2zM14 11h2v1h-2zM19 11h1v1h-1zM29 11h1v1h-1zM14 12h2v1h-2zM18 12h2v1h-2zM22 12h4v1h-4zM28 12h2v1h-2zM14 13h2v1h-2zM22 13h4v1h-4zM14 14h2v1h-2zM20 14h2v1h-2zM26 14h2v1h-2zM15 15h16v1h-16zM4 18h1v1h-1zM12 18h1v1h-1zM24 18h2v1h-2zM4 19h1v1h-1zM12 19h1v1h-1zM24 19h2v1h-2zM12 20h1v1h-1z"/><path fill="#efe3cf" d="M18 11h1v1h-1zM28 11h1v1h-1z"/><path fill="#4e3d33" d="M22 11h4v1h-4zM4 16h26v1h-26zM4 17h25v1h-25zM13 18h11v1h-11zM11 21h3v1h-3zM11 22h3v1h-3zM11 23h3v1h-3zM11 24h3v1h-3z"/><path fill="#8f6e4f" d="M5 12h3v1h-3zM11 14h3v1h-3zM4 15h3v1h-3z"/><path fill="#948a7e" d="M22 14h4v1h-4z"/></g><g id="f5" class="f"><path fill="#463d33" d="M15 2h3v1h-3zM30 2h3v1h-3zM14 3h1v1h-1zM18 3h1v1h-1zM29 3h1v1h-1zM33 3h1v1h-1zM14 4h1v1h-1zM18 4h1v1h-1zM29 4h1v1h-1zM33 4h1v1h-1zM14 5h1v1h-1zM19 5h1v1h-1zM28 5h1v1h-1zM33 5h1v1h-1zM14 6h2v1h-2zM20 6h2v1h-2zM26 6h2v1h-2zM32 6h2v1h-2zM14 7h2v1h-2zM20 7h8v1h-8zM32 7h2v1h-2zM4 8h12v1h-12zM21 8h6v1h-6zM32 8h2v1h-2zM2 9h14v1h-14zM32 9h2v1h-2zM1 10h4v1h-4zM32 10h2v1h-2zM0 11h3v1h-3zM32 11h2v1h-2zM0 12h2v1h-2zM32 12h2v1h-2zM0 13h2v1h-2zM32 13h2v1h-2zM0 14h2v1h-2zM31 14h3v1h-3zM0 15h2v1h-2zM31 15h2v1h-2zM0 16h3v1h-3zM31 16h2v1h-2zM1 17h3v1h-3zM31 17h2v1h-2zM2 18h4v1h-4zM28 18h5v1h-5zM3 19h3v1h-3zM11 19h11v1h-11zM28 19h4v1h-4zM4 20h1v1h-1zM12 20h10v1h-10zM29 20h1v1h-1zM4 21h1v1h-1zM12 21h1v1h-1zM20 21h1v1h-1zM29 21h1v1h-1zM4 22h1v1h-1zM12 22h1v1h-1zM20 22h1v1h-1zM29 22h1v1h-1zM4 23h1v1h-1zM8 23h1v1h-1zM12 23h1v1h-1zM20 23h1v1h-1zM24 23h2v1h-2zM29 23h1v1h-1zM4 24h5v1h-5zM12 24h1v1h-1zM20 24h1v1h-1zM24 24h6v1h-6zM8 25h5v1h-5zM20 25h5v1h-5z"/><path fill="#9a7570" d="M15 3h3v1h-3zM30 3h3v1h-3zM15 4h3v1h-3zM30 4h3v1h-3zM15 5h3v1h-3zM30 5h3v1h-3zM16 6h2v1h-2zM30 6h2v1h-2z"/><path fill="#6b5644" d="M18 5h1v1h-1zM29 5h1v1h-1zM18 6h2v1h-2zM28 6h2v1h-2zM16 7h4v1h-4zM28 7h4v1h-4zM16 8h5v1h-5zM27 8h5v1h-5zM16 9h5v1h-5zM27 9h5v1h-5zM16 10h16v1h-16zM3 11h11v1h-11zM16 11h2v1h-2zM20 11h2v1h-2zM26 11h2v1h-2zM30 11h2v1h-2zM2 12h3v1h-3zM8 12h6v1h-6zM16 12h2v1h-2zM20 12h2v1h-2zM26 12h2v1h-2zM30 12h2v1h-2zM2 13h12v1h-12zM16 13h6v1h-6zM26 13h6v1h-6zM2 14h9v1h-9zM16 14h4v1h-4zM28 14h3v1h-3zM2 15h2v1h-2zM7 15h8v1h-8zM3 16h1v1h-1zM30 16h1v1h-1zM29 17h2v1h-2zM5 20h3v1h-3zM5 21h3v1h-3zM21 21h3v1h-3zM5 22h3v1h-3zM21 22h3v1h-3zM5 23h3v1h-3zM21 23h3v1h-3zM21 24h3v1h-3z"/><path fill="#856d56" d="M21 9h6v1h-6zM5 10h9v1h-9z"/><path fill="#1e1711" d="M14 10h2v1h-2zM14 11h2v1h-2zM19 11h1v1h-1zM29 11h1v1h-1zM14 12h2v1h-2zM18 12h2v1h-2zM22 12h4v1h-4zM28 12h2v1h-2zM14 13h2v1h-2zM22 13h4v1h-4zM14 14h2v1h-2zM20 14h2v1h-2zM26 14h2v1h-2zM15 15h16v1h-16zM6 18h7v1h-7zM24 18h4v1h-4zM6 19h5v1h-5zM22 19h6v1h-6zM8 20h1v1h-1zM22 20h4v1h-4zM8 21h1v1h-1zM24 21h2v1h-2zM8 22h1v1h-1zM24 22h2v1h-2z"/><path fill="#efe3cf" d="M18 11h1v1h-1zM28 11h1v1h-1z"/><path fill="#4e3d33" d="M22 11h4v1h-4zM4 16h26v1h-26zM4 17h25v1h-25zM13 18h11v1h-11zM9 20h3v1h-3zM26 20h3v1h-3zM9 21h3v1h-3zM26 21h3v1h-3zM9 22h3v1h-3zM26 22h3v1h-3zM9 23h3v1h-3zM26 23h3v1h-3zM9 24h3v1h-3z"/><path fill="#8f6e4f" d="M5 12h3v1h-3zM11 14h3v1h-3zM4 15h3v1h-3z"/><path fill="#948a7e" d="M22 14h4v1h-4z"/></g><g id="f6" class="f"><path fill="#463d33" d="M15 3h3v1h-3zM30 3h3v1h-3zM14 4h1v1h-1zM18 4h1v1h-1zM29 4h1v1h-1zM33 4h1v1h-1zM14 5h1v1h-1zM18 5h1v1h-1zM29 5h1v1h-1zM33 5h1v1h-1zM14 6h1v1h-1zM19 6h1v1h-1zM28 6h1v1h-1zM33 6h1v1h-1zM14 7h2v1h-2zM20 7h2v1h-2zM26 7h2v1h-2zM32 7h2v1h-2zM14 8h2v1h-2zM20 8h8v1h-8zM32 8h2v1h-2zM4 9h12v1h-12zM21 9h6v1h-6zM32 9h2v1h-2zM2 10h14v1h-14zM32 10h2v1h-2zM1 11h4v1h-4zM32 11h2v1h-2zM0 12h3v1h-3zM32 12h2v1h-2zM0 13h2v1h-2zM32 13h2v1h-2zM0 14h2v1h-2zM32 14h2v1h-2zM0 15h2v1h-2zM31 15h3v1h-3zM0 16h2v1h-2zM31 16h2v1h-2zM0 17h3v1h-3zM31 17h2v1h-2zM1 18h3v1h-3zM31 18h2v1h-2zM2 19h6v1h-6zM24 19h4v1h-4zM29 19h4v1h-4zM3 20h5v1h-5zM10 20h10v1h-10zM21 20h7v1h-7zM29 20h3v1h-3zM6 21h2v1h-2zM11 21h9v1h-9zM21 21h3v1h-3zM26 21h1v1h-1zM30 21h1v1h-1zM6 22h2v1h-2zM11 22h1v1h-1zM18 22h1v1h-1zM22 22h1v1h-1zM26 22h1v1h-1zM30 22h1v1h-1zM6 23h2v1h-2zM9 23h3v1h-3zM18 23h1v1h-1zM22 23h1v1h-1zM26 23h1v1h-1zM30 23h1v1h-1zM6 24h1v1h-1zM10 24h1v1h-1zM18 24h1v1h-1zM22 24h1v1h-1zM26 24h1v1h-1zM30 24h1v1h-1zM6 25h5v1h-5zM18 25h5v1h-5zM26 25h5v1h-5z"/><path fill="#9a7570" d="M15 4h3v1h-3zM30 4h3v1h-3zM15 5h3v1h-3zM30 5h3v1h-3zM15 6h3v1h-3zM30 6h3v1h-3zM16 7h2v1h-2zM30 7h2v1h-2z"/><path fill="#6b5644" d="M18 6h1v1h-1zM29 6h1v1h-1zM18 7h2v1h-2zM28 7h2v1h-2zM16 8h4v1h-4zM28 8h4v1h-4zM16 9h5v1h-5zM27 9h5v1h-5zM16 10h5v1h-5zM27 10h5v1h-5zM16 11h16v1h-16zM3 12h11v1h-11zM16 12h2v1h-2zM20 12h2v1h-2zM26 12h2v1h-2zM30 12h2v1h-2zM2 13h3v1h-3zM8 13h6v1h-6zM16 13h2v1h-2zM20 13h2v1h-2zM26 13h2v1h-2zM30 13h2v1h-2zM2 14h12v1h-12zM16 14h6v1h-6zM26 14h6v1h-6zM2 15h9v1h-9zM16 15h4v1h-4zM28 15h3v1h-3zM2 16h2v1h-2zM7 16h8v1h-8zM3 17h1v1h-1zM30 17h1v1h-1zM29 18h2v1h-2zM8 21h3v1h-3zM8 22h3v1h-3zM19 22h3v1h-3zM19 23h3v1h-3zM19 24h3v1h-3z"/><path fill="#856d56" d="M21 10h6v1h-6zM5 11h9v1h-9z"/><path fill="#1e1711" d="M14 11h2v1h-2zM14 12h2v1h-2zM19 12h1v1h-1zM29 12h1v1h-1zM14 13h2v1h-2zM18 13h2v1h-2zM22 13h4v1h-4zM28 13h2v1h-2zM14 14h2v1h-2zM22 14h4v1h-4zM14 15h2v1h-2zM20 15h2v1h-2zM26 15h2v1h-2zM15 16h16v1h-16zM8 19h5v1h-5zM28 19h1v1h-1zM8 20h2v1h-2zM20 20h1v1h-1zM28 20h1v1h-1zM20 21h1v1h-1zM8 23h1v1h-1z"/><path fill="#efe3cf" d="M18 12h1v1h-1zM28 12h1v1h-1z"/><path fill="#4e3d33" d="M22 12h4v1h-4zM4 17h26v1h-26zM4 18h25v1h-25zM13 19h11v1h-11zM27 21h3v1h-3zM27 22h3v1h-3zM27 23h3v1h-3zM7 24h3v1h-3zM27 24h3v1h-3z"/><path fill="#8f6e4f" d="M5 13h3v1h-3zM11 15h3v1h-3zM4 16h3v1h-3z"/><path fill="#948a7e" d="M22 15h4v1h-4z"/></g><g id="f7" class="f"><path fill="#463d33" d="M15 3h3v1h-3zM30 3h3v1h-3zM14 4h1v1h-1zM18 4h1v1h-1zM29 4h1v1h-1zM33 4h1v1h-1zM14 5h1v1h-1zM18 5h1v1h-1zM29 5h1v1h-1zM33 5h1v1h-1zM14 6h1v1h-1zM19 6h1v1h-1zM28 6h1v1h-1zM33 6h1v1h-1zM14 7h2v1h-2zM20 7h2v1h-2zM26 7h2v1h-2zM32 7h2v1h-2zM14 8h2v1h-2zM20 8h8v1h-8zM32 8h2v1h-2zM4 9h12v1h-12zM21 9h6v1h-6zM32 9h2v1h-2zM2 10h14v1h-14zM32 10h2v1h-2zM1 11h4v1h-4zM32 11h2v1h-2zM0 12h3v1h-3zM32 12h2v1h-2zM0 13h2v1h-2zM32 13h2v1h-2zM0 14h2v1h-2zM32 14h2v1h-2zM0 15h2v1h-2zM31 15h3v1h-3zM0 16h2v1h-2zM31 16h2v1h-2zM0 17h3v1h-3zM31 17h2v1h-2zM1 18h3v1h-3zM31 18h2v1h-2zM2 19h4v1h-4zM27 19h6v1h-6zM3 20h3v1h-3zM12 20h10v1h-10zM27 20h5v1h-5zM4 21h1v1h-1zM12 21h10v1h-10zM28 21h1v1h-1zM4 22h1v1h-1zM13 22h1v1h-1zM20 22h1v1h-1zM28 22h1v1h-1zM4 23h1v1h-1zM8 23h2v1h-2zM13 23h1v1h-1zM20 23h1v1h-1zM24 23h1v1h-1zM28 23h1v1h-1zM4 24h1v1h-1zM8 24h6v1h-6zM20 24h5v1h-5zM28 24h1v1h-1zM4 25h5v1h-5zM24 25h5v1h-5z"/><path fill="#9a7570" d="M15 4h3v1h-3zM30 4h3v1h-3zM15 5h3v1h-3zM30 5h3v1h-3zM15 6h3v1h-3zM30 6h3v1h-3zM16 7h2v1h-2zM30 7h2v1h-2z"/><path fill="#6b5644" d="M18 6h1v1h-1zM29 6h1v1h-1zM18 7h2v1h-2zM28 7h2v1h-2zM16 8h4v1h-4zM28 8h4v1h-4zM16 9h5v1h-5zM27 9h5v1h-5zM16 10h5v1h-5zM27 10h5v1h-5zM16 11h16v1h-16zM3 12h11v1h-11zM16 12h2v1h-2zM20 12h2v1h-2zM26 12h2v1h-2zM30 12h2v1h-2zM2 13h3v1h-3zM8 13h6v1h-6zM16 13h2v1h-2zM20 13h2v1h-2zM26 13h2v1h-2zM30 13h2v1h-2zM2 14h12v1h-12zM16 14h6v1h-6zM26 14h6v1h-6zM2 15h9v1h-9zM16 15h4v1h-4zM28 15h3v1h-3zM2 16h2v1h-2zM7 16h8v1h-8zM3 17h1v1h-1zM30 17h1v1h-1zM29 18h2v1h-2zM10 21h2v1h-2zM10 22h3v1h-3zM21 22h3v1h-3zM10 23h3v1h-3zM21 23h3v1h-3z"/><path fill="#856d56" d="M21 10h6v1h-6zM5 11h9v1h-9z"/><path fill="#1e1711" d="M14 11h2v1h-2zM14 12h2v1h-2zM19 12h1v1h-1zM29 12h1v1h-1zM14 13h2v1h-2zM18 13h2v1h-2zM22 13h4v1h-4zM28 13h2v1h-2zM14 14h2v1h-2zM22 14h4v1h-4zM14 15h2v1h-2zM20 15h2v1h-2zM26 15h2v1h-2zM15 16h16v1h-16zM6 19h7v1h-7zM24 19h3v1h-3zM6 20h6v1h-6zM22 20h5v1h-5zM8 21h2v1h-2zM22 21h3v1h-3zM8 22h2v1h-2zM24 22h1v1h-1z"/><path fill="#efe3cf" d="M18 12h1v1h-1zM28 12h1v1h-1z"/><path fill="#4e3d33" d="M22 12h4v1h-4zM4 17h26v1h-26zM4 18h25v1h-25zM13 19h11v1h-11zM5 21h3v1h-3zM25 21h3v1h-3zM5 22h3v1h-3zM25 22h3v1h-3zM5 23h3v1h-3zM25 23h3v1h-3zM5 24h3v1h-3zM25 24h3v1h-3z"/><path fill="#8f6e4f" d="M5 13h3v1h-3zM11 15h3v1h-3zM4 16h3v1h-3z"/><path fill="#948a7e" d="M22 15h4v1h-4z"/></g></svg>
